<svg width="212" height="50" viewBox="0 0 212 50" fill="none" xmlns="http://www.w3.org/2000/svg">
<rect width="212" height="50" fill="transparent"/>
<path d="M36.1354 32.4164L36.3907 32.4243L36.4492 31.8591L32.9181 31.7453L32.5059 31.3496L32.3392 31.3345L32.5761 29.3282L32.3176 29.3003L32.0799 31.3111L28.7395 31.0104L28.621 28.0699L32.6239 29.3142L32.8593 29.0316L31.6237 28.6356L33.9192 28.4091L34.0368 28.1826L33.8501 28.1634L33.8701 28.1596L33.5638 26.5901L33.6246 26.5995L33.9776 25.9773L31.3291 25.5816L30.4458 24.6772V23.7724L31.9179 25.5251L32.3882 25.6947L31.4468 24.1677L32.5651 23.9985L32.6243 23.772L32.0928 23.7061L31.954 22.0152L31.9771 22.0197L36.45 20.4927L36.5088 20.0967L36.3358 20.0688L35.9899 18.8629L36.6845 18.4013L32.6239 17.6664L32.5647 17.3834L33.0342 16.9734L33.3626 16.9207L33.0213 15.0074L33.33 14.6125L31.9763 13.9342L32.3874 13.5588L33.1935 13.2118L33.1001 12.9088L33.1539 12.8594L33.0797 12.8425L32.8267 12.0225L33.2127 11.5593L31.7351 11.1859L31.6484 10.2709L31.7998 10.0896L22.3826 5L11.906 12.2376C11.5529 14.669 12.1417 14.4994 12.1417 14.4994L13.2012 14.839L10.67 16.2521C10.0812 16.9874 10.5523 18.2878 10.5523 18.2878C9.7874 19.1357 10.4938 20.2663 10.4938 20.2663L12.1417 20.7189L10.5523 22.1893C10.1404 23.4894 11.1407 23.4894 11.1407 23.4894H11.6114L11.6702 24.0547L9.72817 24.2811C8.84521 25.2425 9.78701 25.8643 9.78701 25.8643L12.4943 26.5995L11.0818 27.0517C10.4931 27.5039 10.7873 28.5787 10.7873 28.5787L9.1394 28.8048C8.25683 29.653 8.96289 31.6884 8.96289 31.6884L11.8463 31.8014L7.78574 31.971C6.25517 33.1023 7.43232 36.0985 7.43232 36.0985L24.795 38.1342L36.6841 36.4381L36.3158 36.0842C36.2213 35.6885 35.8918 34.1228 36.1354 32.4164ZM32.9825 16.7277L27.7388 14.669L25.208 13.199L24.7377 13.3685L23.2071 12.5206C22.7953 11.8989 23.0895 10.3719 23.0895 10.3719L32.7483 14.9562L33.0613 16.7149L32.9825 16.7277ZM31.5641 17.5534L26.7966 16.5355L25.1492 15.6303C24.5608 14.839 25.1492 13.8777 25.1492 13.8777L31.5641 17.5534ZM22.5595 5.56526L31.3868 10.2769L31.4664 11.1177L26.5024 9.8624L22.5007 7.8836C22.2646 6.86575 22.5595 5.56526 22.5595 5.56526ZM19.3223 8.50576L32.4792 11.7786L32.7871 12.7765L26.6794 11.3894L22.8541 9.63667L21.7946 10.1454L19.3815 9.63667C18.91 8.61882 19.3223 8.50576 19.3223 8.50576ZM18.3805 15.63L35.7208 18.8727L36.051 20.0224L18.4393 17.1569C18.1451 16.5355 18.3805 15.63 18.3805 15.63ZM21.8535 20.2109L31.6876 21.9685L31.8284 23.674L30.7992 23.5467L30.0927 22.6419L27.2089 22.8684L21.6173 21.7936C20.9701 20.6631 21.8535 20.2109 21.8535 20.2109ZM22.0292 24.7906L33.29 26.5478L33.6003 28.1381L22.0876 26.9394C21.382 26.0907 22.0292 24.7906 22.0292 24.7906ZM24.855 32.0848L35.8738 32.4089C35.6604 33.9358 35.8934 35.3505 36.0189 35.9467L25.0315 37.2871C23.6778 34.9119 24.855 32.0848 24.855 32.0848Z" fill="url(#paint0_linear_228_10)"/>
<path d="M57.214 25.9182C58.3455 26.3064 59.2345 26.9017 59.881 27.704C60.5141 28.5063 60.8306 29.4769 60.8306 30.6156C60.8306 32.285 60.137 33.5726 58.7496 34.4784C57.3487 35.3842 55.3283 35.8372 52.6882 35.8372H42V16.8146H52.1225C54.6548 16.8146 56.581 17.2675 57.901 18.1733C59.221 19.0662 59.881 20.2697 59.881 21.7837C59.881 22.6896 59.6453 23.5048 59.1739 24.2295C58.7159 24.9412 58.0626 25.5041 57.214 25.9182ZM51.3951 20.6967H47.536V24.3654H51.3951C53.2809 24.3654 54.2238 23.7507 54.2238 22.5213C54.2238 21.3049 53.2809 20.6967 51.3951 20.6967ZM52.2437 31.955C54.1968 31.955 55.1734 31.3144 55.1734 30.0333C55.1734 28.7393 54.1968 28.0922 52.2437 28.0922H47.536V31.955H52.2437ZM71.1956 36.0895C69.5523 36.0895 68.0706 35.7595 66.7506 35.0995C65.4306 34.4525 64.4001 33.5467 63.6593 32.382C62.905 31.2303 62.5278 29.9169 62.5278 28.4416C62.5278 26.9923 62.905 25.6918 63.6593 24.5401C64.4001 23.3754 65.4238 22.4696 66.7304 21.8226C68.0504 21.1885 69.5388 20.8714 71.1956 20.8714C72.8524 20.8714 74.3408 21.1885 75.6608 21.8226C76.9808 22.4696 78.0113 23.3689 78.7521 24.5207C79.4795 25.6724 79.8431 26.9794 79.8431 28.4416C79.8431 29.9169 79.4795 31.2303 78.7521 32.382C78.0113 33.5467 76.9808 34.4525 75.6608 35.0995C74.3408 35.7595 72.8524 36.0895 71.1956 36.0895ZM71.1956 31.9744C72.1385 31.9744 72.913 31.6638 73.5191 31.0427C74.1118 30.4215 74.4081 29.5545 74.4081 28.4416C74.4081 27.3546 74.1118 26.507 73.5191 25.8988C72.913 25.2777 72.1385 24.9671 71.1956 24.9671C70.2527 24.9671 69.4782 25.2777 68.8721 25.8988C68.2659 26.507 67.9629 27.3546 67.9629 28.4416C67.9629 29.5545 68.2659 30.4215 68.8721 31.0427C69.4782 31.6638 70.2527 31.9744 71.1956 31.9744ZM90.0262 36.0895C88.3829 36.0895 86.9013 35.7595 85.5812 35.0995C84.2612 34.4525 83.2308 33.5467 82.4899 32.382C81.7491 31.2303 81.3787 29.9169 81.3787 28.4416C81.3787 26.9923 81.7491 25.6918 82.4899 24.5401C83.2308 23.3754 84.2612 22.4696 85.5812 21.8226C86.8878 21.1885 88.3695 20.8714 90.0262 20.8714C91.683 20.8714 93.1714 21.1885 94.4914 21.8226C95.8115 22.4696 96.8419 23.3689 97.5827 24.5207C98.3236 25.6724 98.694 26.9794 98.694 28.4416C98.694 29.9169 98.3236 31.2303 97.5827 32.382C96.8419 33.5467 95.8115 34.4525 94.4914 35.0995C93.1714 35.7595 91.683 36.0895 90.0262 36.0895ZM90.0262 31.9744C90.9691 31.9744 91.7436 31.6638 92.3498 31.0427C92.9559 30.4215 93.259 29.5545 93.259 28.4416C93.259 27.3546 92.9559 26.507 92.3498 25.8988C91.7436 25.2777 90.9691 24.9671 90.0262 24.9671C89.0834 24.9671 88.3088 25.2777 87.7027 25.8988C87.11 26.507 86.8137 27.3546 86.8137 28.4416C86.8137 29.5545 87.11 30.4215 87.7027 31.0427C88.3088 31.6638 89.0834 31.9744 90.0262 31.9744ZM112.433 35.8372L108.13 30.6739L106.554 32.2267V35.8372H101.179V15.6693H106.554V26.2482L112.029 21.1044H118.393L112.029 27.4129L118.939 35.8372H112.433ZM144.599 20.9685H134.658V25.1612H143.407V29.3151H134.658V35.8372H129.061V16.8146H144.599V20.9685ZM146.963 35.8372V21.1044H152.337V35.8372H146.963ZM149.65 19.4738C148.68 19.4738 147.892 19.215 147.286 18.6974C146.68 18.1669 146.377 17.5134 146.377 16.7369C146.377 15.9605 146.68 15.307 147.286 14.7764C147.892 14.2588 148.68 14 149.65 14C150.633 14 151.428 14.2459 152.034 14.7376C152.64 15.2423 152.943 15.8828 152.943 16.6593C152.943 17.4745 152.64 18.1474 152.034 18.678C151.428 19.2086 150.633 19.4738 149.65 19.4738ZM165.814 20.8714C167.713 20.8714 169.242 21.4149 170.4 22.5019C171.558 23.5889 172.138 25.2259 172.138 27.4129V35.8372H166.763V28.2669C166.763 26.2482 165.928 25.2389 164.258 25.2389C163.328 25.2389 162.588 25.53 162.035 26.1123C161.483 26.6947 161.207 27.5617 161.207 28.7134V35.8372H155.832V21.1044H160.944V22.7155C161.55 22.1202 162.264 21.6608 163.086 21.3373C163.921 21.0267 164.83 20.8714 165.814 20.8714ZM186.422 15.6693H191.797V35.8372H186.685V34.3813C185.688 35.5201 184.186 36.0895 182.179 36.0895C180.792 36.0895 179.519 35.7789 178.361 35.1578C177.216 34.5237 176.306 33.6308 175.633 32.4791C174.973 31.3144 174.643 29.9686 174.643 28.4416C174.643 26.9276 174.973 25.5947 175.633 24.443C176.306 23.2913 177.216 22.4049 178.361 21.7837C179.519 21.1755 180.792 20.8714 182.179 20.8714C184.011 20.8714 185.425 21.3761 186.422 22.3855V15.6693ZM183.311 31.9744C184.24 31.9744 185.008 31.6638 185.614 31.0427C186.22 30.4215 186.523 29.5545 186.523 28.4416C186.523 27.3546 186.22 26.507 185.614 25.8988C185.021 25.2777 184.254 24.9671 183.311 24.9671C182.368 24.9671 181.6 25.2777 181.007 25.8988C180.401 26.507 180.098 27.3546 180.098 28.4416C180.098 29.5545 180.401 30.4215 181.007 31.0427C181.6 31.6638 182.368 31.9744 183.311 31.9744ZM200.384 22.8707C200.922 22.2108 201.629 21.7126 202.505 21.3761C203.381 21.0397 204.384 20.8714 205.515 20.8714V25.5106C205.031 25.4588 204.626 25.433 204.303 25.433C203.158 25.433 202.256 25.7306 201.596 26.3259C200.949 26.9211 200.626 27.8399 200.626 29.0822V35.8372H195.252V21.1044H200.384V22.8707Z" fill="black"/>
<defs>
<linearGradient id="paint0_linear_228_10" x1="5.64437" y1="6.77611" x2="2656.46" y2="1293.42" gradientUnits="userSpaceOnUse">
<stop stop-color="#041804"/>
<stop offset="1"/>
</linearGradient>
</defs>
</svg>
